ply
format ascii 1.0
comment meshconvert, R. Toro 2010
element vertex 8
property float x
property float y
property float z
element face 12
property list uchar int vertex_indices
end_header
-0.438083 0.408787 0.000000 
0.270723 0.444869 0.000000 
-0.368177 -0.336508 0.000000 
0.415901 -0.331993 0.000000 
0.317721 0.467359 -0.657347 
0.368688 -0.305641 -0.747378 
-0.447689 0.422553 -0.656224 
-0.425985 -0.300256 -0.742458 
3 1 2 3
3 0 2 1
3 1 5 4
3 1 3 5
3 0 7 2
3 0 6 7
3 0 1 6
3 1 4 6
3 4 5 6
3 5 7 6
3 3 7 5
3 2 7 3
