ply
format ascii 1.0
comment meshconvert, R. Toro 2010
element vertex 37
property float x
property float y
property float z
element face 52
property list uchar int vertex_indices
element edge 0
property int vertex1
property int vertex2
end_header
0.425323 -0.309011 -0.850654 
-0.162456 -0.499995 -0.850654 
0.723607 -0.525725 -0.447220 
0.850648 0.000000 -0.525736 
-0.525730 0.000000 -0.850652 
-0.162456 0.499995 -0.850654 
0.425323 0.309011 -0.850654 
0.951058 -0.309013 0.000000 
-0.276388 -0.850649 -0.447220 
0.262869 -0.809012 -0.525738 
-0.894426 0.000000 -0.447216 
-0.688189 -0.499997 -0.525736 
-0.951058 -0.309013 0.000000 
-0.276388 0.850649 -0.447220 
-0.688189 0.499997 -0.525736 
-0.587786 0.809017 0.000000 
0.723607 0.525725 -0.447220 
0.262869 0.809012 -0.525738 
0.587786 0.809017 0.000000 
0.587786 -0.809017 0.000000 
-0.587786 -0.809017 0.000000 
0.000000 1.000000 0.000000 
0.276388 -0.850649 0.447220 
0.688189 -0.499997 0.525736 
0.162456 -0.499995 0.850654 
-0.723607 -0.525725 0.447220 
-0.262869 -0.809012 0.525738 
-0.425323 -0.309011 0.850654 
-0.723607 0.525725 0.447220 
-0.850648 0.000000 0.525736 
-0.425323 0.309011 0.850654 
0.276388 0.850649 0.447220 
-0.262869 0.809012 0.525738 
0.162456 0.499995 0.850654 
0.894426 0.000000 0.447216 
0.688189 0.499997 0.525736 
0.525730 0.000000 0.850652 
3 2 0 3
3 2 3 7
3 10 11 12
3 13 14 15
3 16 17 18
3 2 7 19
3 13 15 21
3 22 23 24
3 25 26 27
3 28 29 30
3 31 32 33
3 34 35 36
3 1 9 8
3 1 0 9
3 0 2 9
3 3 6 16
3 3 0 6
3 4 11 10
3 4 1 11
3 1 8 11
3 5 14 13
3 5 4 14
3 4 10 14
3 6 17 16
3 6 5 17
3 5 13 17
3 9 2 19
3 12 20 25
3 12 11 20
3 11 8 20
3 18 21 31
3 18 17 21
3 17 13 21
3 19 23 22
3 19 7 23
3 7 34 23
3 20 26 25
3 12 25 29
3 21 32 31
3 21 15 32
3 15 28 32
3 18 31 35
3 24 23 36
3 23 34 36
3 27 26 24
3 26 22 24
3 30 29 27
3 29 25 27
3 33 32 30
3 32 28 30
3 36 35 33
3 35 31 33
