ply
format ascii 1.0
comment meshconvert, R. Toro 2010
element vertex 12
property float x
property float y
property float z
element face 20
property list uchar int vertex_indices
end_header
0.000000 -1.000000 0.000000
0.724000 -0.447000 0.526000
-0.276000 -0.447000 0.851000
-0.894000 -0.447000 0.000000
-0.276000 -0.447000 -0.851000
0.724000 -0.447000 -0.526000
0.276000 0.447000 0.851000
-0.724000 0.447000 0.526000
-0.724000 0.447000 -0.526000
0.276000 0.447000 -0.851000
0.894000 0.447000 0.000000
0.000000 1.000000 0.000000
3 2 0 1
3 1 0 5
3 3 0 2
3 4 0 3
3 5 0 4
3 1 5 10
3 2 1 6
3 3 2 7
3 4 3 8
3 5 4 9
3 10 6 1
3 6 7 2
3 7 8 3
3 8 9 4
3 9 10 5
3 6 10 11
3 7 6 11
3 8 7 11
3 9 8 11
3 10 9 11
