ply
format ascii 1.0
comment meshconvert, R. Toro 2010
element vertex 8
property float x
property float y
property float z
element face 12
property list uchar int vertex_indices
end_header
9.500000 10.500000 10.500000
10.500000 10.500000 10.500000
9.500000 9.500000 10.500000
10.500000 9.500000 10.500000
10.500000 10.500000 9.500000
10.500000 9.500000 9.500000
9.500000 10.500000 9.500000
9.500000 9.500000 9.500000
3 1 2 3
3 0 2 1
3 1 5 4
3 1 3 5
3 0 7 2
3 0 6 7
3 0 1 6
3 1 4 6
3 4 5 6
3 5 7 6
3 3 7 5
3 2 7 3
