ply
format ascii 1.0
comment meshconvert, R. Toro 2010
element vertex 74
property float x
property float y
property float z
element face 160
property list uchar int vertex_indices
end_header
0.425323 -0.309011 -0.850654
-0.162456 -0.499995 -0.850654
0.723607 -0.525725 -0.447220
0.850648 0.000000 -0.525736
-0.525730 0.000000 -0.850652
-0.162456 0.499995 -0.850654
0.425323 0.309011 -0.850654
0.951058 -0.309013 0.000000
-0.276388 -0.850649 -0.447220
0.262869 -0.809012 -0.525738
-0.894426 0.000000 -0.447216
-0.688189 -0.499997 -0.525736
-0.951058 -0.309013 0.000000
-0.276388 0.850649 -0.447220
-0.688189 0.499997 -0.525736
-0.587786 0.809017 0.000000
0.723607 0.525725 -0.447220
0.262869 0.809012 -0.525738
0.587786 0.809017 0.000000
0.587786 -0.809017 0.000000
-0.587786 -0.809017 0.000000
0.000000 1.000000 0.000000
0.276388 -0.850649 0.447220
0.688189 -0.499997 0.525736
0.162456 -0.499995 0.850654
-0.723607 -0.525725 0.447220
-0.262869 -0.809012 0.525738
-0.425323 -0.309011 0.850654
-0.723607 0.525725 0.447220
-0.850648 0.000000 0.525736
-0.425323 0.309011 0.850654
0.276388 0.850649 0.447220
-0.262869 0.809012 0.525738
0.162456 0.499995 0.850654
0.894426 0.000000 0.447216
0.688189 0.499997 0.525736
0.525730 0.000000 0.850652
0.400746 -0.291155 -0.814245
-0.153068 -0.471103 -0.814245
0.689470 -0.500923 -0.426122
0.814242 0.003350 -0.495131
-0.495351 -0.000000 -0.814243
-0.153068 0.471103 -0.814245
0.400746 0.291155 -0.814245
0.908659 -0.287218 -0.000775
-0.259353 -0.815216 -0.419657
0.248432 -0.775423 -0.495132
-0.855463 0.005252 -0.419653
-0.655830 -0.476487 -0.501016
-0.908659 -0.287218 0.000775
-0.263349 0.810519 -0.426122
-0.660705 0.475887 -0.495130
-0.566295 0.766463 -0.000775
0.695172 0.498575 -0.419657
0.250509 0.770972 -0.501018
0.566295 0.766463 0.000775
0.553955 -0.775428 -0.000775
-0.553955 -0.775428 0.000775
0.000000 0.952980 0.000000
0.259353 -0.815216 0.419657
0.655830 -0.476487 0.501016
0.153068 -0.471103 0.814245
-0.689470 -0.500923 0.426122
-0.248432 -0.775423 0.495132
-0.400746 -0.291155 0.814245
-0.695172 0.498575 0.419657
-0.814242 0.003350 0.495131
-0.400746 0.291155 0.814245
0.263349 0.810519 0.426122
-0.250509 0.770972 0.501018
0.153068 0.471103 0.814245
0.855463 0.005252 0.419653
0.660705 0.475887 0.495130
0.495351 0.000000 0.814243
3 2 0 3
3 2 3 7
3 10 11 12
3 13 14 15
3 16 17 18
3 2 7 19
3 13 15 21
3 22 23 24
3 25 26 27
3 28 29 30
3 31 32 33
3 34 35 36
3 1 9 8
3 1 0 9
3 0 2 9
3 3 6 16
3 3 0 6
3 4 11 10
3 4 1 11
3 1 8 11
3 5 14 13
3 5 4 14
3 4 10 14
3 6 17 16
3 6 5 17
3 5 13 17
3 9 2 19
3 12 20 25
3 12 11 20
3 11 8 20
3 18 21 31
3 18 17 21
3 17 13 21
3 19 23 22
3 19 7 23
3 7 34 23
3 20 26 25
3 12 25 29
3 21 32 31
3 21 15 32
3 15 28 32
3 18 31 35
3 24 23 36
3 23 34 36
3 27 26 24
3 26 22 24
3 30 29 27
3 29 25 27
3 33 32 30
3 32 28 30
3 36 35 33
3 35 31 33
3 39 40 37
3 39 44 40
3 47 49 48
3 50 52 51
3 53 55 54
3 39 56 44
3 50 58 52
3 59 61 60
3 62 64 63
3 65 67 66
3 68 70 69
3 71 73 72
3 38 45 46
3 38 46 37
3 37 46 39
3 40 53 43
3 40 43 37
3 41 47 48
3 41 48 38
3 38 48 45
3 42 50 51
3 42 51 41
3 41 51 47
3 43 53 54
3 43 54 42
3 42 54 50
3 46 56 39
3 49 62 57
3 49 57 48
3 48 57 45
3 55 68 58
3 55 58 54
3 54 58 50
3 56 59 60
3 56 60 44
3 44 60 71
3 57 62 63
3 49 66 62
3 58 68 69
3 58 69 52
3 52 69 65
3 55 72 68
3 61 73 60
3 60 73 71
3 64 61 63
3 63 61 59
3 67 64 66
3 66 64 62
3 70 67 69
3 69 67 65
3 73 70 72
3 72 70 68
3 1 38 0
3 0 38 37
3 0 37 6
3 6 37 43
3 4 41 1
3 1 41 38
3 3 40 7
3 7 40 44
3 16 53 3
3 3 53 40
3 5 42 4
3 4 42 41
3 6 43 5
3 5 43 42
3 7 44 34
3 34 44 71
3 9 46 8
3 8 46 45
3 8 45 20
3 20 45 57
3 19 56 9
3 9 56 46
3 12 49 10
3 10 49 47
3 10 47 14
3 14 47 51
3 29 66 12
3 12 66 49
3 14 51 15
3 15 51 52
3 15 52 28
3 28 52 65
3 18 55 16
3 16 55 53
3 35 72 18
3 18 72 55
3 22 59 19
3 19 59 56
3 20 57 26
3 26 57 63
3 26 63 22
3 22 63 59
3 24 61 27
3 27 61 64
3 36 73 24
3 24 73 61
3 27 64 30
3 30 64 67
3 28 65 29
3 29 65 66
3 30 67 33
3 33 67 70
3 33 70 36
3 36 70 73
3 34 71 35
3 35 71 72
