ply
format ascii 1.0
comment meshconvert, R. Toro 2010
element vertex 8
property float x
property float y
property float z
element face 12
property list uchar int vertex_indices
end_header
9.561917 10.408787 10.000000
10.270723 10.444869 10.000000
9.631823 9.663492 10.000000
10.415901 9.668007 10.000000
10.317721 10.467359 9.342653
10.368688 9.694359 9.252622
9.552311 10.422553 9.343776
9.574015 9.699744 9.257542
3 1 2 3
3 0 2 1
3 1 5 4
3 1 3 5
3 0 7 2
3 0 6 7
3 0 1 6
3 1 4 6
3 4 5 6
3 5 7 6
3 3 7 5
3 2 7 3
